<?xml version="1.0" encoding="UTF-8" standalone="no"?>
<!-- Created with Inkscape (http://www.inkscape.org/) -->

<svg
   version="1.1"
   id="svg2"
   width="691.46527"
   height="144.9328"
   viewBox="0 0 691.46527 144.9328"
   xmlns="http://www.w3.org/2000/svg"
   xmlns:svg="http://www.w3.org/2000/svg">
  <defs
     id="defs6" />
  <g
     id="g8"
     transform="translate(-22.117924,-158.04941)">
    <g
       id="g1621">
      <path
         style="display:inline;fill:#e6e6e6;fill-opacity:1"
         d="m 713.57793,276 c 0.0429,-12.375 -0.18213,-35.1 -0.5,-50.5 -0.54854,-26.57593 -0.69486,-28.23737 -2.87704,-32.66717 -2.78517,-5.65386 -5.49602,-7.55743 -12.87197,-9.03873 -7.32245,-1.47056 -10.0177,-0.71689 -29.12686,8.14472 -8.37468,3.88365 -15.91911,7.06118 -16.7654,7.06118 -0.84629,0 -2.18979,-1.55825 -2.98555,-3.46277 -2.1434,-5.12988 -7.06988,-10.25631 -11.15045,-11.60302 -5.08723,-1.67894 -13.52926,-0.55113 -22.87774,3.05634 -10.04543,3.8764 -29.65035,14.11226 -30.18435,15.75945 -0.30751,0.94856 2.23498,1.25 10.54315,1.25 h 10.94839 l 0.55931,13.25 c 0.30762,7.2875 0.63537,28.09942 0.72833,46.2487 0.12148,23.7158 0.4944,33.20899 1.32564,33.74624 0.63614,0.41114 10.15661,0.63673 21.15661,0.5013 l 20,-0.24624 0.5,-43 c 0.52214,-44.90373 0.65193,-46.17298 4.95718,-48.47708 4.72093,-2.52657 12.27739,-0.42971 13.89877,3.8568 0.56739,1.50004 1.19712,20.65873 1.47295,44.81265 0.26501,23.20581 0.78156,42.67734 1.14789,43.27007 0.45022,0.72848 7.36691,0.99019 21.34463,0.80763 L 713.5,298.5 Z"
         id="path1657" />
      <path
         style="display:inline;fill:#e6e6e6;fill-opacity:1"
         d="m 450.02536,297.46944 c 1.0099,-1.21685 1.12571,-11.3112 0.56506,-49.25 -0.38786,-26.24569 -1.12841,-49.33897 -1.64568,-51.3184 -1.30683,-5.00085 -4.96523,-10.12452 -8.48207,-11.87934 -1.80674,-0.90153 -5.8889,-1.48677 -10.46267,-1.5 -7.27057,-0.021 -8.01083,0.21537 -24.19906,7.7283 -9.18449,4.2625 -17.13184,7.75 -17.6608,7.75 -0.52895,0 -1.89993,-1.93806 -3.04661,-4.3068 -5.55937,-11.48412 -14.23428,-14.4014 -28.80107,-9.68551 C 346.55356,188.16058 321,200.89052 321,202.58922 321,203.71696 323.17808,204 331.8564,204 h 10.8564 l 0.52074,6.75 c 0.2864,3.7125 0.61288,24.3 0.72551,45.75 0.11786,22.44589 0.60046,39.40923 1.13698,39.96411 0.53557,0.55391 9.54205,0.97939 21.16808,1 L 386.5,297.5 l 0.5,-43.67034 0.5,-43.67034 2.37558,-2.52779 c 1.30657,-1.39028 3.62246,-2.80164 5.14641,-3.13636 3.70089,-0.81285 9.77353,1.82284 10.84371,4.70646 0.46914,1.2641 1.10465,21.59918 1.41225,45.18905 0.44532,34.15115 0.83056,43.06266 1.89066,43.73469 0.73227,0.4642 9.93879,0.8509 20.45895,0.85932 15.96504,0.0128 19.33757,-0.23775 20.3978,-1.51525 z"
         id="path1655" />
      <path
         style="display:none;fill:#000000;fill-opacity:1"
         d="m 526.06607,288.25 c -3.42795,-3.47556 -4.14774,-5.36007 -9.83523,-25.75 -9.21752,-33.04526 -14.1,-51.54031 -14.79708,-56.05201 -1.29056,-8.35285 3.86628,-14.67747 12.111,-14.85357 3.78877,-0.0809 4.91609,0.40607 7.88362,3.40558 3.28939,3.32484 4.02189,5.55108 14.63644,44.48366 9.4249,34.56914 11.03769,41.52875 10.30446,44.46637 -1.17753,4.71768 -6.20075,8.04997 -12.13481,8.04997 -3.84086,0 -4.99017,-0.52763 -8.1684,-3.75 z"
         id="path1653" />
      <path
         id="path1647"
         style="display:inline;fill:#e6e6e6;fill-opacity:1"
         d="m 270.52539,182.16602 c -0.82772,0.005 -1.64636,0.0457 -2.45312,0.12304 -3.56311,0.34145 -14.16031,3.7772 -29.39454,9.5293 -13.10257,4.94724 -24.09138,9.26131 -24.41796,9.58789 -1.62732,1.62732 2.68113,2.06975 23.67382,2.43164 12.55241,0.21639 23.35271,0.72104 24,1.12109 1.25327,0.77456 9.10352,27.06684 8.42774,28.22657 -0.21995,0.37745 -2.83095,-0.38777 -5.80078,-1.70117 -16.51734,-7.30475 -35.42299,-8.05667 -49.21094,-1.95899 -10.68494,4.72539 -20.13708,16.39451 -22.91797,28.17773 -1.64951,6.98933 0.8479,14.95742 4.68555,21.02735 6.07326,9.60594 15.5745,18.36211 26.88281,20.9707 8.42468,1.94339 23.23858,0.9373 32.6875,-2.2207 9.59991,-3.20846 15.331,-6.48285 21.58008,-12.32813 2.85603,-2.67147 5.15515,-4.11646 5.67969,-3.57031 0.4846,0.50456 1.96629,4.51797 3.29296,8.91797 l 2.41211,8 18.79297,0.27344 c 11.98282,0.17374 19.25122,-0.10629 20.05274,-0.77149 1.48618,-1.23342 1.15625,-2.6768 -12.875,-56.42773 -6.00686,-23.01106 -10.55744,-38.49052 -12.07617,-41.08203 -6.17551,-10.53771 -20.60561,-18.40346 -33.02149,-18.32617 z m -25.22656,59.26171 a 22.986303,22.193821 0 0 1 22.98633,22.19532 22.986303,22.193821 0 0 1 -22.98633,22.19336 22.986303,22.193821 0 0 1 -22.98633,-22.19336 22.986303,22.193821 0 0 1 22.98633,-22.19532 z" />
      <path
         style="display:inline;fill:#e6e6e6;fill-opacity:1"
         d="m 131.15063,300.04328 c 20.06586,-3.4595 30.67908,-8.38069 46.96042,-21.77484 7.996,-6.57806 9.40091,-8.79168 7.96941,-12.5568 -0.56702,-1.4914 -1.4547,-2.71164 -1.9726,-2.71164 -0.5179,0 -3.78742,2.96359 -7.26559,6.58575 -11.14818,11.60966 -25.50898,17.46846 -43.34227,17.6824 -14.64059,0.17563 -25.84799,-4.06675 -36.295122,-13.73895 -15.480283,-14.33202 -22.938731,-36.14344 -18.768686,-54.887 3.987149,-17.92147 15.247239,-32.31492 31.625788,-40.42633 16.4696,-8.1565 32.00579,-8.79033 45.98231,-1.87593 3.51319,1.73803 6.52521,3.63936 6.69337,4.22516 0.16816,0.58581 -5.55283,10.81975 -12.71332,22.74208 -13.14716,21.89027 -14.42406,24.35731 -12.41699,23.99037 1.26636,-0.23152 46.46828,-26.56088 50.64265,-29.49849 1.5125,-1.06439 2.75,-2.35325 2.75,-2.86414 0,-2.02432 -14.92247,-16.48941 -21.8065,-21.13812 C 150.18456,160.96027 126.06456,155.84682 99,158.91575 59.000134,163.45146 31.930201,183.84133 24.541629,215 c -10.500433,44.28183 13.296913,74.07403 67.910772,85.01833 11.999459,2.40463 24.847559,2.41291 38.698229,0.0249 z"
         id="path1645" />
      <path
         id="path1885"
         style="fill:#e6e6e6;fill-opacity:1;stroke-width:1.1443"
         d="m 524.30933,183.17246 a 59.905106,59.905106 0 0 0 -59.90625,59.90429 59.905106,59.905106 0 0 0 59.90625,59.90625 59.905106,59.905106 0 0 0 59.9043,-59.90625 59.905106,59.905106 0 0 0 -59.9043,-59.90429 z m -16.58008,11.33984 c 4.17972,0.1673 7.77077,1.95345 9.58008,5.20117 l 39.58008,71.04688 c 3.21655,5.77372 -0.45209,13.91806 -8.22656,18.26172 -7.77448,4.34365 -16.6233,3.19364 -19.83985,-2.58008 l -39.58008,-71.04883 c -3.21655,-5.77372 0.45209,-13.91807 8.22657,-18.26172 3.40133,-1.90035 7.00887,-2.74926 10.25976,-2.61914 z" />
    </g>
  </g>
</svg>
